<svg xmlns="http://www.w3.org/2000/svg" xmlns:xlink="http://www.w3.org/1999/xlink" width="423pt" height="98pt" viewBox="0.00 0.00 423.00 98.00">
<g id="graph0" class="graph" transform="scale(1 1) rotate(0) translate(4 94)">
<title>G</title>
<!-- A -->
<g id="node1" class="node">
<title>A</title>
<path fill="#e3f2fd" stroke="#1976d2" d="M132.5,-63C132.5,-63 102,-63 102,-63 96,-63 90,-57 90,-51 90,-51 90,-39 90,-39 90,-33 96,-27 102,-27 102,-27 132.5,-27 132.5,-27 138.5,-27 144.5,-33 144.5,-39 144.5,-39 144.5,-51 144.5,-51 144.5,-57 138.5,-63 132.5,-63"/>
<text xml:space="preserve" text-anchor="start" x="112.92" y="-45.7" font-family="Arial Bold" font-size="12.00">A</text>
<text xml:space="preserve" text-anchor="start" x="98" y="-36.4" font-family="Arial Bold" font-style="italic" font-size="9.00" fill="#d63384">0 */2 * * *</text>
</g>
<!-- B -->
<g id="node2" class="node">
<title>B</title>
<path fill="#e3f2fd" stroke="#1976d2" d="M312.5,-63C312.5,-63 282.5,-63 282.5,-63 276.5,-63 270.5,-57 270.5,-51 270.5,-51 270.5,-39 270.5,-39 270.5,-33 276.5,-27 282.5,-27 282.5,-27 312.5,-27 312.5,-27 318.5,-27 324.5,-33 324.5,-39 324.5,-39 324.5,-51 324.5,-51 324.5,-57 318.5,-63 312.5,-63"/>
<text xml:space="preserve" text-anchor="start" x="293.5" y="-41.4" font-family="Arial Bold" font-size="12.00">B</text>
</g>
<!-- A&#45;&gt;B -->
<g id="edge7" class="edge">
<title>A-&gt;B</title>
<path fill="none" stroke="#ff6b35" d="M144.89,-47.09C155.9,-47.85 168.81,-48.62 180.5,-49 204.49,-49.77 210.51,-49.77 234.5,-49 243.04,-48.72 252.23,-48.24 260.85,-47.69"/>
<polygon fill="#ff6b35" stroke="#ff6b35" points="260.97,-50.49 268.76,-47.17 260.59,-44.91 260.97,-50.49"/>
</g>
<!-- s3 -->
<g id="node5" class="node">
<title>s3</title>
<ellipse fill="#f3e5f5" stroke="#7b1fa2" cx="207.5" cy="-22" rx="27" ry="18"/>
<text xml:space="preserve" text-anchor="middle" x="207.5" y="-19" font-family="Arial" font-size="10.00">s3</text>
</g>
<!-- A&#45;&gt;s3 -->
<g id="edge3" class="edge">
<title>A-&gt;s3</title>
<path fill="none" stroke="#666666" d="M144.73,-38.1C153.56,-35.8 163.53,-33.2 172.83,-30.77"/>
<polygon fill="#666666" stroke="#666666" points="173.35,-33.53 180.39,-28.81 171.94,-28.11 173.35,-33.53"/>
</g>
<!-- s4 -->
<g id="node6" class="node">
<title>s4</title>
<ellipse fill="#f3e5f5" stroke="#7b1fa2" cx="387.5" cy="-72" rx="27" ry="18"/>
<text xml:space="preserve" text-anchor="middle" x="387.5" y="-69" font-family="Arial" font-size="10.00">s4</text>
</g>
<!-- B&#45;&gt;s4 -->
<g id="edge5" class="edge">
<title>B-&gt;s4</title>
<path fill="none" stroke="#666666" d="M324.9,-53.1C333.96,-55.88 344.2,-59.02 353.7,-61.94"/>
<polygon fill="#666666" stroke="#666666" points="352.6,-64.53 361.07,-64.2 354.24,-59.17 352.6,-64.53"/>
</g>
<!-- s5 -->
<g id="node7" class="node">
<title>s5</title>
<ellipse fill="#f3e5f5" stroke="#7b1fa2" cx="387.5" cy="-18" rx="27" ry="18"/>
<text xml:space="preserve" text-anchor="middle" x="387.5" y="-15" font-family="Arial" font-size="10.00">s5</text>
</g>
<!-- B&#45;&gt;s5 -->
<g id="edge6" class="edge">
<title>B-&gt;s5</title>
<path fill="none" stroke="#666666" d="M324.9,-36.9C333.96,-34.12 344.2,-30.98 353.7,-28.06"/>
<polygon fill="#666666" stroke="#666666" points="354.24,-30.83 361.07,-25.8 352.6,-25.47 354.24,-30.83"/>
</g>
<!-- s1 -->
<g id="node3" class="node">
<title>s1</title>
<ellipse fill="#f3e5f5" stroke="#7b1fa2" cx="27" cy="-72" rx="27" ry="18"/>
<text xml:space="preserve" text-anchor="middle" x="27" y="-69" font-family="Arial" font-size="10.00">s1</text>
</g>
<!-- s1&#45;&gt;A -->
<g id="edge1" class="edge">
<title>s1-&gt;A</title>
<path fill="none" stroke="#666666" d="M52.11,-64.62C60.93,-61.92 71.1,-58.81 80.71,-55.87"/>
<polygon fill="#666666" stroke="#666666" points="81.4,-58.59 88.24,-53.57 79.77,-53.23 81.4,-58.59"/>
</g>
<!-- s2 -->
<g id="node4" class="node">
<title>s2</title>
<ellipse fill="#f3e5f5" stroke="#7b1fa2" cx="27" cy="-18" rx="27" ry="18"/>
<text xml:space="preserve" text-anchor="middle" x="27" y="-15" font-family="Arial" font-size="10.00">s2</text>
</g>
<!-- s2&#45;&gt;A -->
<g id="edge2" class="edge">
<title>s2-&gt;A</title>
<path fill="none" stroke="#666666" d="M52.11,-25.38C60.93,-28.08 71.1,-31.19 80.71,-34.13"/>
<polygon fill="#666666" stroke="#666666" points="79.77,-36.77 88.24,-36.43 81.4,-31.41 79.77,-36.77"/>
</g>
<!-- s3&#45;&gt;B -->
<g id="edge4" class="edge">
<title>s3-&gt;B</title>
<path fill="none" stroke="#666666" d="M233.01,-28.41C241.71,-30.68 251.68,-33.29 261.1,-35.75"/>
<polygon fill="#666666" stroke="#666666" points="260.36,-38.45 268.81,-37.76 261.78,-33.03 260.36,-38.45"/>
</g>
</g>
</svg>