<?xml version="1.0" encoding="UTF-8" standalone="no"?>
<!DOCTYPE svg PUBLIC "-//W3C//DTD SVG 1.1//EN"
 "http://www.w3.org/Graphics/SVG/1.1/DTD/svg11.dtd">
<!-- Generated by graphviz version 14.1.4 (20260321.0153)
 -->
<!-- Pages: 1 -->
<svg width="189pt" height="188pt"
 viewBox="0.00 0.00 189.00 188.00" xmlns="http://www.w3.org/2000/svg" xmlns:xlink="http://www.w3.org/1999/xlink">
<style>
  [stroke="black"], [stroke="#000000"] { stroke: #1f2328 }
  [fill="black"], [fill="#000000"], text { fill: #1f2328 }
  @media (prefers-color-scheme: dark) {
    [stroke="black"], [stroke="#000000"] { stroke: #e6edf3 }
    [fill="black"], [fill="#000000"], text { fill: #e6edf3 }
  }
</style>
<g id="graph0" class="graph" transform="scale(1 1) rotate(0) translate(4 184)">
<!-- n1 -->
<g id="node1" class="node">
<title>n1</title>
<ellipse fill="none" stroke="black" cx="108" cy="-162" rx="45.72" ry="18"/>
<text xml:space="preserve" text-anchor="middle" x="108" y="-156.95" font-family="Times,serif" font-size="14.00">AndThen</text>
</g>
<!-- n2 -->
<g id="node2" class="node">
<title>n2</title>
<ellipse fill="none" stroke="black" cx="63" cy="-90" rx="45.72" ry="18"/>
<text xml:space="preserve" text-anchor="middle" x="63" y="-84.95" font-family="Times,serif" font-size="14.00">AndThen</text>
</g>
<!-- n1&#45;&gt;n2 -->
<g id="edge1" class="edge">
<title>n1&#45;&gt;n2</title>
<path fill="none" stroke="black" d="M97.11,-144.05C91.97,-136.06 85.71,-126.33 79.97,-117.4"/>
<polygon fill="black" stroke="black" points="82.96,-115.58 74.61,-109.06 77.07,-119.37 82.96,-115.58"/>
</g>
<!-- c -->
<g id="node5" class="node">
<title>c</title>
<ellipse fill="none" stroke="black" cx="154" cy="-90" rx="27" ry="18"/>
<text xml:space="preserve" text-anchor="middle" x="154" y="-84.95" font-family="Times,serif" font-size="14.00">c</text>
</g>
<!-- n1&#45;&gt;c -->
<g id="edge2" class="edge">
<title>n1&#45;&gt;c</title>
<path fill="none" stroke="black" d="M119.14,-144.05C124.6,-135.73 131.3,-125.54 137.36,-116.32"/>
<polygon fill="black" stroke="black" points="140.2,-118.37 142.77,-108.09 134.35,-114.53 140.2,-118.37"/>
</g>
<!-- a -->
<g id="node3" class="node">
<title>a</title>
<ellipse fill="none" stroke="black" cx="27" cy="-18" rx="27" ry="18"/>
<text xml:space="preserve" text-anchor="middle" x="27" y="-12.95" font-family="Times,serif" font-size="14.00">a</text>
</g>
<!-- n2&#45;&gt;a -->
<g id="edge3" class="edge">
<title>n2&#45;&gt;a</title>
<path fill="none" stroke="black" d="M54.29,-72.05C50.16,-64.03 45.13,-54.26 40.52,-45.3"/>
<polygon fill="black" stroke="black" points="43.76,-43.95 36.08,-36.65 37.54,-47.15 43.76,-43.95"/>
</g>
<!-- b -->
<g id="node4" class="node">
<title>b</title>
<ellipse fill="none" stroke="black" cx="99" cy="-18" rx="27" ry="18"/>
<text xml:space="preserve" text-anchor="middle" x="99" y="-12.95" font-family="Times,serif" font-size="14.00">b</text>
</g>
<!-- n2&#45;&gt;b -->
<g id="edge4" class="edge">
<title>n2&#45;&gt;b</title>
<path fill="none" stroke="black" d="M71.71,-72.05C75.84,-64.03 80.87,-54.26 85.48,-45.3"/>
<polygon fill="black" stroke="black" points="88.46,-47.15 89.92,-36.65 82.24,-43.95 88.46,-47.15"/>
</g>
</g>
</svg>
